<mxfile host="app.diagrams.net" modified="2024-04-10T07:41:15.174Z" agent="Mozilla/5.0 (Windows NT 10.0; Win64; x64) AppleWebKit/537.36 (KHTML, like Gecko) Chrome/123.0.0.0 Safari/537.36" etag="qUH1Xm86x0-Inn9P0mMz" version="24.2.1" type="device">
  <diagram name="Page-1" id="xe937W6d6CGl27xXQzOp">
    <mxGraphModel dx="2229" dy="549" grid="1" gridSize="10" guides="1" tooltips="1" connect="1" arrows="1" fold="1" page="1" pageScale="1" pageWidth="850" pageHeight="1100" math="0" shadow="0">
      <root>
        <mxCell id="0" />
        <mxCell id="1" parent="0" />
        <mxCell id="SpCTVran3LgBJ5wlW4wU-1" value="Start" style="ellipse;whiteSpace=wrap;html=1;" parent="1" vertex="1">
          <mxGeometry x="10" y="240" width="80" height="50" as="geometry" />
        </mxCell>
        <mxCell id="SpCTVran3LgBJ5wlW4wU-3" value="Input &#39;1&#39;" style="rounded=0;whiteSpace=wrap;html=1;" parent="1" vertex="1">
          <mxGeometry x="120" y="160" width="120" height="50" as="geometry" />
        </mxCell>
        <mxCell id="SpCTVran3LgBJ5wlW4wU-4" value="Input &#39;2&#39;" style="rounded=0;whiteSpace=wrap;html=1;" parent="1" vertex="1">
          <mxGeometry x="120" y="310" width="120" height="50" as="geometry" />
        </mxCell>
        <mxCell id="SpCTVran3LgBJ5wlW4wU-7" value="" style="endArrow=classic;html=1;rounded=0;entryX=0;entryY=0.5;entryDx=0;entryDy=0;exitX=0.71;exitY=0.04;exitDx=0;exitDy=0;exitPerimeter=0;" parent="1" source="SpCTVran3LgBJ5wlW4wU-1" target="SpCTVran3LgBJ5wlW4wU-3" edge="1">
          <mxGeometry width="50" height="50" relative="1" as="geometry">
            <mxPoint x="90" y="240" as="sourcePoint" />
            <mxPoint x="140" y="190" as="targetPoint" />
          </mxGeometry>
        </mxCell>
        <mxCell id="SpCTVran3LgBJ5wlW4wU-8" value="Exit program" style="rounded=0;whiteSpace=wrap;html=1;" parent="1" vertex="1">
          <mxGeometry x="710" y="230" width="130" height="50" as="geometry" />
        </mxCell>
        <mxCell id="SpCTVran3LgBJ5wlW4wU-10" value="Get name and id from input" style="rounded=0;whiteSpace=wrap;html=1;" parent="1" vertex="1">
          <mxGeometry x="320" y="160" width="130" height="50" as="geometry" />
        </mxCell>
        <mxCell id="SpCTVran3LgBJ5wlW4wU-11" value="" style="endArrow=classic;html=1;rounded=0;exitX=1;exitY=0.5;exitDx=0;exitDy=0;" parent="1" source="SpCTVran3LgBJ5wlW4wU-3" target="SpCTVran3LgBJ5wlW4wU-10" edge="1">
          <mxGeometry width="50" height="50" relative="1" as="geometry">
            <mxPoint x="260" y="244" as="sourcePoint" />
            <mxPoint x="347" y="246" as="targetPoint" />
            <Array as="points" />
          </mxGeometry>
        </mxCell>
        <mxCell id="SpCTVran3LgBJ5wlW4wU-12" value="" style="endArrow=classic;html=1;rounded=0;" parent="1" source="SpCTVran3LgBJ5wlW4wU-4" target="SpCTVran3LgBJ5wlW4wU-13" edge="1">
          <mxGeometry width="50" height="50" relative="1" as="geometry">
            <mxPoint x="260" y="350" as="sourcePoint" />
            <mxPoint x="340" y="350" as="targetPoint" />
          </mxGeometry>
        </mxCell>
        <mxCell id="SpCTVran3LgBJ5wlW4wU-13" value="Search student with name or id" style="rounded=0;whiteSpace=wrap;html=1;" parent="1" vertex="1">
          <mxGeometry x="320" y="310" width="130" height="50" as="geometry" />
        </mxCell>
        <mxCell id="SpCTVran3LgBJ5wlW4wU-14" value="" style="endArrow=classic;html=1;rounded=0;entryX=0.5;entryY=1;entryDx=0;entryDy=0;exitX=1;exitY=0.5;exitDx=0;exitDy=0;" parent="1" source="SpCTVran3LgBJ5wlW4wU-13" target="SpCTVran3LgBJ5wlW4wU-15" edge="1">
          <mxGeometry width="50" height="50" relative="1" as="geometry">
            <mxPoint x="480" y="349.5" as="sourcePoint" />
            <mxPoint x="650" y="250" as="targetPoint" />
            <Array as="points">
              <mxPoint x="570" y="335" />
            </Array>
          </mxGeometry>
        </mxCell>
        <mxCell id="SpCTVran3LgBJ5wlW4wU-15" value="Input &#39;0&#39;" style="rounded=0;whiteSpace=wrap;html=1;" parent="1" vertex="1">
          <mxGeometry x="510" y="230" width="120" height="50" as="geometry" />
        </mxCell>
        <mxCell id="SpCTVran3LgBJ5wlW4wU-18" value="" style="endArrow=classic;html=1;rounded=0;entryX=0.5;entryY=0;entryDx=0;entryDy=0;exitX=1;exitY=0.5;exitDx=0;exitDy=0;" parent="1" source="SpCTVran3LgBJ5wlW4wU-10" target="SpCTVran3LgBJ5wlW4wU-15" edge="1">
          <mxGeometry width="50" height="50" relative="1" as="geometry">
            <mxPoint x="480" y="184.5" as="sourcePoint" />
            <mxPoint x="650" y="180" as="targetPoint" />
            <Array as="points">
              <mxPoint x="570" y="185" />
            </Array>
          </mxGeometry>
        </mxCell>
        <mxCell id="SpCTVran3LgBJ5wlW4wU-19" value="" style="endArrow=classic;html=1;rounded=0;entryX=0;entryY=0.5;entryDx=0;entryDy=0;" parent="1" target="SpCTVran3LgBJ5wlW4wU-4" edge="1">
          <mxGeometry width="50" height="50" relative="1" as="geometry">
            <mxPoint x="60" y="290" as="sourcePoint" />
            <mxPoint x="110" y="240" as="targetPoint" />
          </mxGeometry>
        </mxCell>
        <mxCell id="SpCTVran3LgBJ5wlW4wU-20" value="" style="endArrow=classic;html=1;rounded=0;entryX=0.001;entryY=0.623;entryDx=0;entryDy=0;entryPerimeter=0;" parent="1" target="SpCTVran3LgBJ5wlW4wU-8" edge="1">
          <mxGeometry width="50" height="50" relative="1" as="geometry">
            <mxPoint x="630" y="260" as="sourcePoint" />
            <mxPoint x="680" y="210" as="targetPoint" />
          </mxGeometry>
        </mxCell>
        <mxCell id="_guS-_H25qiXpEvEvRSV-10" style="edgeStyle=orthogonalEdgeStyle;rounded=0;orthogonalLoop=1;jettySize=auto;html=1;exitX=1;exitY=0.5;exitDx=0;exitDy=0;" edge="1" parent="1" source="_guS-_H25qiXpEvEvRSV-1" target="_guS-_H25qiXpEvEvRSV-3">
          <mxGeometry relative="1" as="geometry" />
        </mxCell>
        <mxCell id="_guS-_H25qiXpEvEvRSV-1" value="start" style="ellipse;whiteSpace=wrap;html=1;" vertex="1" parent="1">
          <mxGeometry x="-330" y="556.25" width="90" height="55" as="geometry" />
        </mxCell>
        <mxCell id="_guS-_H25qiXpEvEvRSV-46" style="edgeStyle=orthogonalEdgeStyle;rounded=0;orthogonalLoop=1;jettySize=auto;html=1;exitX=1;exitY=0.5;exitDx=0;exitDy=0;entryX=0.5;entryY=0;entryDx=0;entryDy=0;" edge="1" parent="1" source="_guS-_H25qiXpEvEvRSV-2" target="_guS-_H25qiXpEvEvRSV-45">
          <mxGeometry relative="1" as="geometry" />
        </mxCell>
        <mxCell id="_guS-_H25qiXpEvEvRSV-2" value="input 0" style="shape=parallelogram;perimeter=parallelogramPerimeter;whiteSpace=wrap;html=1;fixedSize=1;" vertex="1" parent="1">
          <mxGeometry x="340" y="497.5" width="110" height="47.5" as="geometry" />
        </mxCell>
        <mxCell id="_guS-_H25qiXpEvEvRSV-7" style="edgeStyle=orthogonalEdgeStyle;rounded=0;orthogonalLoop=1;jettySize=auto;html=1;exitX=0.5;exitY=0;exitDx=0;exitDy=0;entryX=0;entryY=0.5;entryDx=0;entryDy=0;" edge="1" parent="1" source="_guS-_H25qiXpEvEvRSV-3" target="_guS-_H25qiXpEvEvRSV-2">
          <mxGeometry relative="1" as="geometry" />
        </mxCell>
        <mxCell id="_guS-_H25qiXpEvEvRSV-8" style="edgeStyle=orthogonalEdgeStyle;rounded=0;orthogonalLoop=1;jettySize=auto;html=1;exitX=1;exitY=0.5;exitDx=0;exitDy=0;entryX=0;entryY=0.5;entryDx=0;entryDy=0;" edge="1" parent="1" source="_guS-_H25qiXpEvEvRSV-3" target="_guS-_H25qiXpEvEvRSV-5">
          <mxGeometry relative="1" as="geometry" />
        </mxCell>
        <mxCell id="_guS-_H25qiXpEvEvRSV-38" style="edgeStyle=orthogonalEdgeStyle;rounded=0;orthogonalLoop=1;jettySize=auto;html=1;exitX=0.5;exitY=1;exitDx=0;exitDy=0;entryX=0;entryY=1;entryDx=0;entryDy=0;" edge="1" parent="1" source="_guS-_H25qiXpEvEvRSV-3" target="_guS-_H25qiXpEvEvRSV-37">
          <mxGeometry relative="1" as="geometry" />
        </mxCell>
        <mxCell id="_guS-_H25qiXpEvEvRSV-40" style="edgeStyle=orthogonalEdgeStyle;rounded=0;orthogonalLoop=1;jettySize=auto;html=1;exitX=1;exitY=1;exitDx=0;exitDy=0;entryX=0;entryY=1;entryDx=0;entryDy=0;" edge="1" parent="1" source="_guS-_H25qiXpEvEvRSV-3" target="_guS-_H25qiXpEvEvRSV-6">
          <mxGeometry relative="1" as="geometry" />
        </mxCell>
        <mxCell id="_guS-_H25qiXpEvEvRSV-3" value="Choose a command" style="rhombus;whiteSpace=wrap;html=1;" vertex="1" parent="1">
          <mxGeometry x="-180" y="545" width="80" height="77.5" as="geometry" />
        </mxCell>
        <mxCell id="_guS-_H25qiXpEvEvRSV-13" style="edgeStyle=orthogonalEdgeStyle;rounded=0;orthogonalLoop=1;jettySize=auto;html=1;exitX=1;exitY=0.5;exitDx=0;exitDy=0;entryX=0;entryY=0.5;entryDx=0;entryDy=0;" edge="1" parent="1" source="_guS-_H25qiXpEvEvRSV-5" target="_guS-_H25qiXpEvEvRSV-11">
          <mxGeometry relative="1" as="geometry" />
        </mxCell>
        <mxCell id="_guS-_H25qiXpEvEvRSV-5" value="input 1" style="shape=parallelogram;perimeter=parallelogramPerimeter;whiteSpace=wrap;html=1;fixedSize=1;" vertex="1" parent="1">
          <mxGeometry x="-30" y="560" width="110" height="47.5" as="geometry" />
        </mxCell>
        <mxCell id="_guS-_H25qiXpEvEvRSV-15" style="edgeStyle=orthogonalEdgeStyle;rounded=0;orthogonalLoop=1;jettySize=auto;html=1;exitX=1;exitY=0.5;exitDx=0;exitDy=0;entryX=0;entryY=0.5;entryDx=0;entryDy=0;" edge="1" parent="1" source="_guS-_H25qiXpEvEvRSV-6" target="_guS-_H25qiXpEvEvRSV-14">
          <mxGeometry relative="1" as="geometry" />
        </mxCell>
        <mxCell id="_guS-_H25qiXpEvEvRSV-6" value="input 2" style="shape=parallelogram;perimeter=parallelogramPerimeter;whiteSpace=wrap;html=1;fixedSize=1;" vertex="1" parent="1">
          <mxGeometry x="-40" y="642.5" width="110" height="47.5" as="geometry" />
        </mxCell>
        <mxCell id="_guS-_H25qiXpEvEvRSV-41" style="edgeStyle=orthogonalEdgeStyle;rounded=0;orthogonalLoop=1;jettySize=auto;html=1;exitX=1;exitY=0.5;exitDx=0;exitDy=0;entryX=0.25;entryY=1;entryDx=0;entryDy=0;" edge="1" parent="1" source="_guS-_H25qiXpEvEvRSV-11" target="_guS-_H25qiXpEvEvRSV-2">
          <mxGeometry relative="1" as="geometry" />
        </mxCell>
        <mxCell id="_guS-_H25qiXpEvEvRSV-11" value="Add course" style="rounded=0;whiteSpace=wrap;html=1;" vertex="1" parent="1">
          <mxGeometry x="180" y="558.75" width="110" height="50" as="geometry" />
        </mxCell>
        <mxCell id="_guS-_H25qiXpEvEvRSV-42" style="edgeStyle=orthogonalEdgeStyle;rounded=0;orthogonalLoop=1;jettySize=auto;html=1;exitX=1;exitY=0.5;exitDx=0;exitDy=0;entryX=0.5;entryY=1;entryDx=0;entryDy=0;" edge="1" parent="1" source="_guS-_H25qiXpEvEvRSV-14" target="_guS-_H25qiXpEvEvRSV-2">
          <mxGeometry relative="1" as="geometry" />
        </mxCell>
        <mxCell id="_guS-_H25qiXpEvEvRSV-14" value="Search course" style="rounded=0;whiteSpace=wrap;html=1;" vertex="1" parent="1">
          <mxGeometry x="190" y="641.25" width="110" height="50" as="geometry" />
        </mxCell>
        <mxCell id="_guS-_H25qiXpEvEvRSV-37" value="wrong input" style="shape=parallelogram;perimeter=parallelogramPerimeter;whiteSpace=wrap;html=1;fixedSize=1;" vertex="1" parent="1">
          <mxGeometry x="-40" y="730" width="110" height="47.5" as="geometry" />
        </mxCell>
        <mxCell id="_guS-_H25qiXpEvEvRSV-39" style="edgeStyle=orthogonalEdgeStyle;rounded=0;orthogonalLoop=1;jettySize=auto;html=1;exitX=0.5;exitY=1;exitDx=0;exitDy=0;entryX=0.182;entryY=0.663;entryDx=0;entryDy=0;entryPerimeter=0;" edge="1" parent="1" source="_guS-_H25qiXpEvEvRSV-37" target="_guS-_H25qiXpEvEvRSV-3">
          <mxGeometry relative="1" as="geometry">
            <Array as="points">
              <mxPoint x="15" y="830" />
              <mxPoint x="-165" y="830" />
            </Array>
          </mxGeometry>
        </mxCell>
        <mxCell id="_guS-_H25qiXpEvEvRSV-45" value="end" style="ellipse;whiteSpace=wrap;html=1;" vertex="1" parent="1">
          <mxGeometry x="530" y="550" width="90" height="55" as="geometry" />
        </mxCell>
      </root>
    </mxGraphModel>
  </diagram>
</mxfile>
